<?xml version="1.0" encoding="UTF-8"?>
<svg xmlns="http://www.w3.org/2000/svg" viewBox="0 0 410.82 378.35">
  <defs>
    <style>
      .cls-1 {
        fill: #c5d2db;
      }

      .cls-1, .cls-2, .cls-3, .cls-4, .cls-5, .cls-6, .cls-7, .cls-8, .cls-9, .cls-10, .cls-11 {
        stroke-width: 0px;
      }

      .cls-1, .cls-10, .cls-11, .cls-12 {
        mix-blend-mode: multiply;
      }

      .cls-13 {
        isolation: isolate;
      }

      .cls-2 {
        fill: #68b42e;
      }

      .cls-3 {
        fill: #d99870;
      }

      .cls-4 {
        fill: #f9bb8d;
      }

      .cls-14 {
        mix-blend-mode: soft-light;
        opacity: .5;
      }

      .cls-5 {
        fill: #fff;
      }

      .cls-6 {
        fill: #3d2216;
      }

      .cls-7 {
        fill: #afaaa8;
      }

      .cls-8 {
        fill: #259dab;
      }

      .cls-9 {
        fill: #f5e720;
      }

      .cls-10 {
        fill: #e5d7d8;
      }

      .cls-11 {
        fill: #f0e8e4;
      }
    </style>
  </defs>
  <g class="cls-13">
    <g id="Capa_1" data-name="Capa 1">
      <ellipse class="cls-2" cx="205.41" cy="189.18" rx="205.41" ry="189.17"/>
      <ellipse class="cls-9" cx="206.68" cy="311.89" rx="150" ry="17.45"/>
      <g>
        <path class="cls-4" d="m152.13,117.92c-1.25-6.28-7.22-12.12-15.42-10.33-8.19,1.8-8.22,9.44-6.97,15.72.07.32,4.1,17.3,6.47,20.87,2.37,3.58,5.8,10.37,11.57,8.43,3.81-1.28,6.06-8.07,6.96-12.97.9-4.9-2.6-21.73-2.6-21.73Z"/>
        <path class="cls-4" d="m256.45,117.66c1.25-6.28,7.22-12.12,15.42-10.33,8.2,1.79,9,9.66,7.76,15.94-.07.33-4.43,16.04-6.47,20.88-1.68,3.98-6.26,11-12.21,8.54-3.72-1.53-6.2-8.41-7.1-13.31-.9-4.9,2.6-21.73,2.6-21.73Z"/>
        <path class="cls-8" d="m76.82,309.92h254.28s-5.01-62.41-13.35-71.77c-8.35-9.35-71.91-30.26-71.91-30.26l-83.08-.24s-66.88,19.57-71.45,30.5c-4.57,10.93-14.48,71.77-14.48,71.77Z"/>
        <path class="cls-1" d="m195.96,207.75l-33.21-.09s-66.88,19.57-71.45,30.5c-4.57,10.93-14.48,71.77-14.48,71.77h33.54s9.91-60.84,14.48-71.77c4.39-10.5,66.31-28.99,71.12-30.41Z"/>
        <path class="cls-3" d="m171.73,203.57s20.95,17.17,32.69,17.17,32.68-17.17,32.68-17.17c0,0-8.86-10.32-2.75-23.87,6.11-13.55-68.13-12.44-59.5,0,8.63,12.44-3.13,23.87-3.13,23.87Z"/>
        <path class="cls-10" d="m193.5,217.65c1.56-4.29,4.7-8.6,9.73-12.26,5.03-3.67,8-.37,29.27-12.58-.58-3.72-.35-8.2,1.87-13.11,6.11-13.55-68.13-12.44-59.5,0,8.63,12.44-3.13,23.87-3.13,23.87,0,0,11.16,9.13,21.76,14.08Z"/>
        <path class="cls-1" d="m167.6,202.35l-4.85,5.3s14.47,35.75,27.04,40.28c3.84,1.38,11.83-16.33,14.62-16.33,1.34,0,12.14,18.79,13.78,18.42,12.87-2.94,27.64-42.12,27.64-42.12l-5.44-4.13-35.98,22.64-36.81-24.06Z"/>
        <path class="cls-4" d="m264.46,70.69c0-27.24-16.88-54.57-61.55-54.57s-60.9,29.91-60.9,57.15c0,1.43-.14,75.5,8.54,92.51,8.67,17,32.55,34.36,53.88,34.44,23.32.09,44.28-14.89,54.07-34.44,9.79-19.56,5.96-95.09,5.96-95.09Z"/>
        <path class="cls-11" d="m159.2,76.82c.38.27.73.51,1.18.84,1.22,1.15-4.91,14.83-3.13,14.89,8.85,1.86,19.47-17.31,28.12-14.62,15.22,4.74,43.86,43.11,71.96,42.36,7.38-7.12,7.14-49.6,7.14-49.6,0-27.24-16.88-54.57-61.55-54.57-37.02,0-54.46,20.54-59.37,43.07,6.91,2.95,12.7,8.66,15.66,17.63Z"/>
        <path class="cls-11" d="m221.92,180.73c-21.33-.08-45.2-17.44-53.88-34.45-8.67-17.01-8.54-91.08-8.54-92.51,0-9.47,2.02-19.24,6.45-27.98-17.04,11.01-23.95,29.78-23.95,47.47,0,1.43-.14,75.5,8.54,92.51,8.67,17,32.55,34.36,53.88,34.44,22.05.09,41.97-13.31,52.36-31.29-9.93,7.32-22.04,11.85-34.86,11.8Z"/>
        <g>
          <path class="cls-11" d="m256.48,169.38c.09-.16.21-.29.3-.45-.5.37-1.03.69-1.54,1.05.42-.19.82-.4,1.23-.6Z"/>
          <path class="cls-11" d="m214.55,194.47c-21.32-.08-45.21-17.44-53.88-34.45-8.67-17.01-8.54-91.07-8.54-92.51,0-12.21,3.4-24.86,11.03-35.19.8-2.23,1.72-4.42,2.8-6.54-17.04,11.01-23.95,29.78-23.95,47.47,0,1.43-.14,75.5,8.54,92.51,8.67,17,32.55,34.36,53.88,34.44,12.1.05,23.48-4.05,33.07-10.65-7.13,3.14-14.89,4.94-22.95,4.91Z"/>
        </g>
        <path class="cls-6" d="m274.45,64.19c-5.5-29.99-29.99-51.73-70.03-51.48-39.93.25-66.17,24.72-71.41,52.48-2.25,11.89-3.99,34.49-3.06,47.96,6.76-5.56,9.55-6.28,12.82-4.98,2.24,24.49,7.57,24.13,7.57,24.13,0,0,.49-16.63,1.58-27.63,1.09-10.99,19.08-12.99,28.08-31.99,28.49-1.24,46.48,35.25,77.72,37.25-3.09,18.06,3.75,25.24,3.75,25.24,0,0,.72-14.92,3.25-21.99,2.2-6.16,8.75-6.16,11.99-3.49,1.55-11.22.8-28.92-2.24-45.49Z"/>
        <g class="cls-14">
          <path class="cls-5" d="m274.45,64.19c-5.5-29.99-29.99-51.73-70.03-51.48-35.04.22-59.54,19.1-68.55,42.49,11.23-19.23,33.75-33.68,64.36-33.87,40.04-.25,64.53,21.49,70.03,51.48,2.23,12.18,3.22,24.96,2.98,35.34,1.3.24,2.52.76,3.46,1.53,1.55-11.22.8-28.92-2.24-45.49Z"/>
        </g>
        <g class="cls-12">
          <path class="cls-7" d="m179.99,58.43c-9,19.01-37.99,36.92-50.04,40.47-.04-.62-.05-1.34-.08-1.99-.22,5.94-.23,11.63.08,16.24,6.76-5.56,9.55-6.28,12.82-4.98,2.24,24.49,7.57,24.13,7.57,24.13,0,0,.49-16.63,1.58-27.63,1.09-10.99,19.08-12.99,28.08-31.99,28.37-1.24,46.34,34.91,77.33,37.19-22.86-7.93-48.84-52.68-77.33-51.44Z"/>
        </g>
        <path class="cls-5" d="m167.6,193.86l-4.85,13.8s14.47,27.25,27.04,31.78c3.84,1.38,11.83-16.33,14.62-16.33,1.34,0,12.14,18.79,13.78,18.42,12.87-2.94,27.64-33.63,27.64-33.63l-5.44-12.62-35.98,22.64-36.81-24.06Z"/>
      </g>
    </g>
  </g>
</svg>